<svg width="200" height="100" xmlns="http://www.w3.org/2000/svg">
  <!-- Fondo con bordes redondeados -->
  <rect width="200" height="100" rx="8" fill="#1a1a1a"/>
  
  <!-- Texto del color -->
  <text x="20" y="30" fill="#ffffff" font-family="monospace" font-size="12">Color: #ffffff</text>
  
  <!-- SVG anidados para mostrar preview de los iconos chat, magnifying_glass_search y agent -->
  
  <!-- Icono: chat -->
  <svg x="20" y="45" width="20" height="20" viewBox="0 0 24 24" fill="#ffffff">
    <path d="M12 4.5C7.5271 4.5 4 7.91095 4 12C4 13.6958 4.5996 15.263 5.62036 16.5254C5.80473 16.7534 5.87973 17.0509 5.82551 17.339C5.72928 17.8505 5.60336 18.3503 5.45668 18.8401C6.08722 18.743 6.69878 18.6098 7.2983 18.4395C7.54758 18.3687 7.81461 18.3975 8.04312 18.5197C9.20727 19.1423 10.5566 19.5 12 19.5C16.4729 19.5 20 16.0891 20 12C20 7.91095 16.4729 4.5 12 4.5ZM2 12C2 6.70021 6.53177 2.5 12 2.5C17.4682 2.5 22 6.70021 22 12C22 17.2998 17.4682 21.5 12 21.5C10.3694 21.5 8.82593 21.1286 7.46141 20.4675C6.36717 20.7507 5.2423 20.9253 4.06155 20.9981C3.72191 21.019 3.39493 20.8658 3.19366 20.5915C2.9924 20.3171 2.94448 19.9592 3.06647 19.6415C3.35663 18.8859 3.6004 18.1448 3.77047 17.399C2.65693 15.8695 2 14.0088 2 12Z" fill="#ffffff"/>
  </svg>
  <text x="20" y="80" fill="#888888" font-family="monospace" font-size="10">chat</text>
  
  <!-- Icono: magnifying_glass_search -->
  <svg x="90" y="45" width="20" height="20" viewBox="0 0 24 24" fill="#ffffff">
    <path fill-rule="evenodd" clip-rule="evenodd" d="M10.875 4.5C7.35418 4.5 4.5 7.35418 4.5 10.875C4.5 14.3958 7.35418 17.25 10.875 17.25C14.3958 17.25 17.25 14.3958 17.25 10.875C17.25 7.35418 14.3958 4.5 10.875 4.5ZM2.5 10.875C2.5 6.24962 6.24962 2.5 10.875 2.5C15.5004 2.5 19.25 6.24962 19.25 10.875C19.25 12.8273 18.582 14.6236 17.462 16.0478L21.2071 19.7929C21.5976 20.1834 21.5976 20.8166 21.2071 21.2071C20.8166 21.5976 20.1834 21.5976 19.7929 21.2071L16.0478 17.462C14.6236 18.582 12.8273 19.25 10.875 19.25C6.24962 19.25 2.5 15.5004 2.5 10.875Z"/>
  </svg>
  <text x="83" y="80" fill="#888888" font-family="monospace" font-size="10">search</text>
  
  <!-- Icono: agent -->
  <svg x="160" y="45" width="20" height="20" viewBox="0 0 24 24" fill="#ffffff">
    <path d="M11 7.5C11 8.32843 10.3284 9 9.5 9C8.67157 9 8 8.32843 8 7.5C8 6.67157 8.67157 6 9.5 6C10.3284 6 11 6.67157 11 7.5Z" fill="#ffffff"/>
    <path d="M14.5 9C15.3284 9 16 8.32843 16 7.5C16 6.67157 15.3284 6 14.5 6C13.6716 6 13 6.67157 13 7.5C13 8.32843 13.6716 9 14.5 9Z" fill="#ffffff"/>
    <path d="M12 1C12.5523 1 13 1.44772 13 2V2.5L15.8708 2.5C16.3832 2.49998 16.8252 2.49997 17.1896 2.52892C17.574 2.55947 17.9568 2.62688 18.3269 2.80938C18.9192 3.10147 19.3985 3.58084 19.6906 4.17313C19.8731 4.54322 19.9405 4.92598 19.9711 5.31042C20 5.6748 20 6.1168 20 6.62913V6.70824C20 7.76163 20 8.61129 19.9453 9.29994C19.889 10.0088 19.77 10.6322 19.4844 11.2114C18.9976 12.1986 18.1986 12.9975 17.2114 13.4844C16.6322 13.77 16.0088 13.889 15.2999 13.9453C14.6113 14 13.7616 14 12.7082 14H11.2918C10.2384 14 9.38872 14 8.70006 13.9453C7.99117 13.889 7.36777 13.77 6.78856 13.4844C5.8014 12.9976 5.00246 12.1986 4.51564 11.2114C4.23001 10.6322 4.11104 10.0088 4.05471 9.29995C3.99999 8.61131 3.99999 7.76169 4 6.70834V6.62922C3.99998 6.11688 3.99997 5.67481 4.02893 5.31042C4.05948 4.92598 4.12688 4.54322 4.30938 4.17313C4.60147 3.58084 5.08084 3.10147 5.67313 2.80938C6.04322 2.62688 6.42598 2.55947 6.81042 2.52892C7.17482 2.49997 7.61685 2.49998 8.12922 2.5L11 2.5V2C11 1.44772 11.4477 1 12 1ZM6.96885 4.52264C6.7044 4.54365 6.60587 4.57938 6.55771 4.60313C6.36028 4.70049 6.20049 4.86028 6.10313 5.05771C6.07938 5.10587 6.04366 5.2044 6.02264 5.46885C6.00074 5.7445 6 6.10631 6 6.66667C6 7.77136 6.00074 8.54142 6.04843 9.14152C6.09522 9.73042 6.18251 10.0696 6.30939 10.3269C6.60148 10.9192 7.08084 11.3985 7.67314 11.6906C7.93042 11.8175 8.26959 11.9048 8.85849 11.9516C9.45858 11.9993 10.2286 12 11.3333 12H12.6667C13.7714 12 14.5414 11.9993 15.1415 11.9516C15.7304 11.9048 16.0696 11.8175 16.3269 11.6906C16.9192 11.3985 17.3985 10.9192 17.6906 10.3269C17.8175 10.0696 17.9048 9.73042 17.9516 9.14152C17.9993 8.54142 18 7.77136 18 6.66667C18 6.1063 17.9993 5.7445 17.9774 5.46885C17.9563 5.20439 17.9206 5.10587 17.8969 5.05771C17.7995 4.86028 17.6397 4.70049 17.4423 4.60313C17.3941 4.57938 17.2956 4.54365 17.0312 4.52264C16.7555 4.50074 16.3937 4.5 15.8333 4.5H8.16667C7.60631 4.5 7.2445 4.50074 6.96885 4.52264Z" fill="#ffffff"/>
    <path d="M6 21C6 20.0261 6.55099 19.05 7.63152 18.2782C8.71012 17.5078 10.2515 17 12 17C13.7486 17 15.2899 17.5078 16.3685 18.2782C17.449 19.05 18 20.0261 18 21C18 21.5523 18.4477 22 19 22C19.5523 22 20 21.5523 20 21C20 19.2125 18.984 17.6886 17.531 16.6507C16.0761 15.6115 14.1174 15 12.0001 15C9.88267 15 7.92397 15.6115 6.46905 16.6507C5.01605 17.6886 4 19.2125 4 21C4 21.5523 4.44772 22 5 22C5.55229 22 6 21.5523 6 21Z" fill="#ffffff"/>
  </svg>
  <text x="158" y="80" fill="#888888" font-family="monospace" font-size="10">agent</text>
</svg>